<svg width="169" height="171" viewBox="0 0 169 171" fill="none" xmlns="http://www.w3.org/2000/svg">
<rect width="169" height="171" fill="#1E1E1E"/>
<ellipse cx="84.5" cy="85.5" rx="84.5" ry="85.5" fill="#D9D9D9"/>
<path d="M46 55L143 80V114H46V55Z" fill="black"/>
<ellipse cx="57.5" cy="127.5" rx="14.5" ry="12.5" fill="black"/>
<path d="M132 127.5C132 134.404 125.508 140 117.5 140C109.492 140 103 134.404 103 127.5C103 120.596 109.492 115 117.5 115C125.508 115 132 120.596 132 127.5Z" fill="black"/>
<path d="M141.978 80.5713L42.126 115.064L43.8958 41.328L141.978 80.5713Z" fill="black"/>
<path d="M22.8499 40.1796L48.4663 44.2705L45.2623 53.2418L22.8499 40.1796Z" fill="black"/>
</svg>
